<svg width="264" height="95" viewBox="0 0 264 95" fill="none" xmlns="http://www.w3.org/2000/svg">
<g filter="url(#filter0_d)">
<path d="M29.448 9.848C24.66 10 20.974 11.824 18.39 15.32C15.882 18.816 14.628 24.858 14.628 33.446C14.628 36.258 14.894 38.234 15.426 39.374C15.958 40.438 16.224 41.046 16.224 41.198C12.12 41.198 9.042 40.362 6.99 38.69C5.014 36.942 4.026 34.092 4.026 30.14C4.026 24.744 5.356 19.842 8.016 15.434C10.676 10.95 14.894 7.34 20.67 4.60399C26.522 1.86799 33.932 0.499993 42.9 0.499993C44.724 0.499993 47.156 0.689993 50.196 1.06999C55.668 1.60199 59.544 1.868 61.824 1.868C65.852 1.868 69.272 1.412 72.084 0.499993C71.856 1.18399 71.438 2.70399 70.83 5.06C70.222 7.34 69.12 9.316 67.524 10.988C66.004 12.584 63.914 13.648 61.254 14.18C56.77 14.18 51.45 13.458 45.294 12.014L40.506 34.7H57.15L55.326 43.136H38.682L29.448 86H13.032L29.448 9.848ZM71.9682 86.456C66.3442 86.456 61.8982 85.012 58.6302 82.124C55.3622 79.236 53.7282 74.676 53.7282 68.444C53.7282 63.276 54.7922 57.538 56.9202 51.23C59.0482 44.922 62.4682 39.488 67.1802 34.928C71.8922 30.292 77.8202 27.974 84.9642 27.974C94.6922 27.974 99.5562 34.054 99.5562 46.214V46.328C99.7842 46.404 100.202 46.442 100.81 46.442C103.318 46.442 106.206 45.796 109.474 44.504C112.742 43.136 115.706 41.502 118.366 39.602L119.392 42.68C117.188 45.036 114.3 47.05 110.728 48.722C107.232 50.318 103.394 51.458 99.2142 52.142C98.6062 59.058 97.0482 65.1 94.5402 70.268C92.0322 75.436 88.8022 79.426 84.8502 82.238C80.8982 85.05 76.6042 86.456 71.9682 86.456ZM76.5282 76.196C78.3522 76.196 80.1762 75.17 82.0002 73.118C83.8242 70.99 85.4202 68.14 86.7882 64.568C88.1562 60.92 89.1442 56.892 89.7522 52.484C87.7002 52.028 86.6742 50.432 86.6742 47.696C86.6742 44.58 87.8522 42.528 90.2082 41.54C90.0562 39.032 89.6762 37.322 89.0682 36.41C88.4602 35.422 87.3962 34.928 85.8762 34.928C83.3682 34.928 80.9362 36.752 78.5802 40.4C76.2242 44.048 74.3242 48.418 72.8802 53.51C71.4362 58.602 70.7142 63.086 70.7142 66.962C70.7142 70.61 71.1322 73.08 71.9682 74.372C72.8042 75.588 74.3242 76.196 76.5282 76.196ZM122.066 86.456C116.442 86.456 111.996 85.012 108.728 82.124C105.46 79.236 103.826 74.676 103.826 68.444C103.826 63.276 104.89 57.538 107.018 51.23C109.146 44.922 112.566 39.488 117.278 34.928C121.99 30.292 127.918 27.974 135.062 27.974C144.79 27.974 149.654 34.054 149.654 46.214V46.328C149.882 46.404 150.3 46.442 150.908 46.442C153.416 46.442 156.304 45.796 159.572 44.504C162.84 43.136 165.804 41.502 168.464 39.602L169.49 42.68C167.286 45.036 164.398 47.05 160.826 48.722C157.33 50.318 153.492 51.458 149.312 52.142C148.704 59.058 147.146 65.1 144.638 70.268C142.13 75.436 138.9 79.426 134.948 82.238C130.996 85.05 126.702 86.456 122.066 86.456ZM126.626 76.196C128.45 76.196 130.274 75.17 132.098 73.118C133.922 70.99 135.518 68.14 136.886 64.568C138.254 60.92 139.242 56.892 139.85 52.484C137.798 52.028 136.772 50.432 136.772 47.696C136.772 44.58 137.95 42.528 140.306 41.54C140.154 39.032 139.774 37.322 139.166 36.41C138.558 35.422 137.494 34.928 135.974 34.928C133.466 34.928 131.034 36.752 128.678 40.4C126.322 44.048 124.422 48.418 122.978 53.51C121.534 58.602 120.812 63.086 120.812 66.962C120.812 70.61 121.23 73.08 122.066 74.372C122.902 75.588 124.422 76.196 126.626 76.196ZM169.2 86.684C164.868 86.684 161.258 85.202 158.37 82.238C155.482 79.274 154.038 74.638 154.038 68.33C154.038 62.706 155.14 56.816 157.344 50.66C159.624 44.428 162.968 39.184 167.376 34.928C171.86 30.596 177.18 28.43 183.336 28.43C186.452 28.43 188.77 28.962 190.29 30.026C191.81 31.09 192.57 32.496 192.57 34.244V34.7L198.156 8.48L215.028 6.19999L201.918 67.76C201.614 68.9 201.462 70.116 201.462 71.408C201.462 72.928 201.804 74.03 202.488 74.714C203.248 75.322 204.464 75.626 206.136 75.626C208.264 75.626 210.088 74.714 211.608 72.89C213.204 71.066 214.458 68.634 215.37 65.594H220.158C215.522 79.198 207.884 86 197.244 86C194.128 86 191.582 85.164 189.606 83.492C187.706 81.82 186.528 79.388 186.072 76.196C184.096 79.236 181.702 81.744 178.89 83.72C176.154 85.696 172.924 86.684 169.2 86.684ZM176.61 75.626C178.434 75.626 180.258 74.79 182.082 73.118C183.982 71.446 185.274 69.128 185.958 66.164V65.594L191.544 39.488C190.86 36.828 189.302 35.498 186.87 35.498C183.83 35.498 181.094 37.284 178.662 40.856C176.23 44.352 174.33 48.608 172.962 53.624C171.594 58.564 170.91 62.934 170.91 66.734C170.91 70.534 171.442 72.966 172.506 74.03C173.646 75.094 175.014 75.626 176.61 75.626ZM223.166 29H239.582L238.1 36.068C240.684 33.788 243.002 32.04 245.054 30.824C247.182 29.608 249.462 29 251.894 29C254.326 29 256.226 29.836 257.594 31.508C259.038 33.18 259.76 35.194 259.76 37.55C259.76 39.754 259.038 41.692 257.594 43.364C256.15 45.036 254.136 45.872 251.552 45.872C249.88 45.872 248.74 45.492 248.132 44.732C247.6 43.896 247.182 42.718 246.878 41.198C246.65 40.21 246.422 39.488 246.194 39.032C245.966 38.576 245.548 38.348 244.94 38.348C243.344 38.348 241.976 38.69 240.836 39.374C239.772 39.982 238.366 41.084 236.618 42.68L227.498 86H211.082L223.166 29Z" fill="white"/>
</g>
<defs>
<filter id="filter0_d" x="0.026001" y="0.5" width="263.734" height="94.184" filterUnits="userSpaceOnUse" color-interpolation-filters="sRGB">
<feFlood flood-opacity="0" result="BackgroundImageFix"/>
<feColorMatrix in="SourceAlpha" type="matrix" values="0 0 0 0 0 0 0 0 0 0 0 0 0 0 0 0 0 0 127 0" result="hardAlpha"/>
<feOffset dy="4"/>
<feGaussianBlur stdDeviation="2"/>
<feComposite in2="hardAlpha" operator="out"/>
<feColorMatrix type="matrix" values="0 0 0 0 0 0 0 0 0 0 0 0 0 0 0 0 0 0 0.25 0"/>
<feBlend mode="normal" in2="BackgroundImageFix" result="effect1_dropShadow"/>
<feBlend mode="normal" in="SourceGraphic" in2="effect1_dropShadow" result="shape"/>
</filter>
</defs>
</svg>
