<?xml version="1.0" encoding="utf-8"?>
<!-- Generator: Adobe Illustrator 25.0.0, SVG Export Plug-In . SVG Version: 6.00 Build 0)  -->
<svg version="1.1" id="Layer_1" xmlns="http://www.w3.org/2000/svg" xmlns:xlink="http://www.w3.org/1999/xlink" x="0px" y="0px"
	 viewBox="0 0 432.96 108" style="enable-background:new 0 0 432.96 108;" xml:space="preserve">
<style type="text/css">
	.st0{fill:#FFFFFF;}
</style>
<g>
	<g>
		<g>
			<g>
				<path class="st0" d="M71.677,14.398c-9.118,0-16.728,6.65-16.728,16.797c0,10.146,7.61,16.865,16.728,16.865
					c9.118,0,16.796-6.719,16.796-16.865C88.473,21.048,80.795,14.398,71.677,14.398z M71.677,42.439
					c-5.827,0-10.695-4.594-10.695-11.244c0-6.582,4.868-11.175,10.695-11.175c5.896,0,10.832,4.594,10.832,11.175
					C82.509,37.845,77.573,42.439,71.677,42.439z"/>
				<path class="st0" d="M145.223,14.398c-9.117,0-16.453,6.582-16.453,16.728c0,10.147,7.335,16.934,16.453,16.934
					c6.17,0,11.929-3.016,14.671-8.57l-5.142-2.057c-1.851,3.222-5.416,5.005-9.323,5.005c-5.485,0-9.598-2.948-10.489-8.639h26.051
					c0.068-0.891,0.137-1.783,0.137-2.674C161.128,20.98,154.341,14.398,145.223,14.398z M135.009,28.658
					c0.96-5.759,4.799-8.639,10.215-8.639c5.279,0,9.187,3.154,9.94,8.639H135.009z"/>
				<path class="st0" d="M204.08,14.397c-3.495,0-8.705,1.782-10.623,5.691l-0.13-4.8h-5.834v31.952h5.963V29.892
					c0-6.925,5.346-9.6,9.801-9.6c4.455,0,7.745,3.429,7.745,8.776v18.17h5.963V28.727C217.034,19.744,212.031,14.397,204.08,14.397
					z"/>
				<path class="st0" d="M170.876,20.093l-0.13-4.803h-5.835v31.952h5.965V29.897c0-6.925,5.347-9.599,9.803-9.599
					c0.853,0,1.662,0.128,2.415,0.368l0.742-6.084c-0.749-0.11-1.522-0.18-2.334-0.18C178.006,14.402,172.795,16.184,170.876,20.093
					z"/>
				<path class="st0" d="M119.214,0l-0.001,20.088c-1.507-2.67-5.399-5.688-11.441-5.688c-9.74,0-16.006,7.744-16.006,16.798
					c0,9.297,6.244,16.862,16.837,16.862c9.297,0,16.578-6.825,16.578-16.834V0H119.214z M108.312,42.437
					c-5.829,0-10.49-4.862-10.49-11.239c0-6.447,4.662-11.182,10.49-11.182c5.28,0,10.901,4.255,10.901,11.182
					C119.213,38.055,114.072,42.437,108.312,42.437z"/>
				<path class="st0" d="M38.952,14.398c-3.222,0-8.227,1.097-11.175,6.856c-1.851-4.388-5.896-6.856-10.558-6.856
					c-4.525,0-8.706,2.262-10.283,5.759l-0.13-4.868H0.972v31.949h5.965V29.892c0-6.788,4.525-9.736,9.049-9.736
					c4.25,0,7.198,3.496,7.198,8.913v18.168h5.965V31.195c0-7.131,2.948-11.107,8.638-11.038c4.662,0,7.61,3.565,7.61,8.913v18.168
					h5.964V28.727C51.36,19.745,46.973,14.398,38.952,14.398z"/>
			</g>
			<g>
				<path class="st0" d="M106.841,59.994c-3.223,0-8.228,1.097-11.176,6.857c-1.851-4.388-5.897-6.857-10.559-6.857
					c-4.525,0-8.707,2.262-10.284,5.759l-0.13-4.868h-5.836v31.952h5.966V75.49c0-6.788,4.525-9.737,9.051-9.737
					c4.251,0,7.199,3.497,7.199,8.914v18.17h5.966V76.793c0-7.131,2.948-11.108,8.639-11.039c4.662,0,7.611,3.566,7.611,8.914v18.17
					h5.965V74.325C119.251,65.342,114.863,59.994,106.841,59.994z"/>
				<path class="st0" d="M209.767,74.667l-4.731-1.166c-2.057-0.48-4.114-1.646-4.114-3.84c0-2.468,2.057-4.457,5.142-4.457
					c2.537,0,5.074,1.646,5.143,4.114h5.759c0-6.445-5.622-9.325-11.039-9.325c-6.445,0-10.97,4.182-10.97,9.462
					c0,5.143,3.086,7.748,8.433,9.188l4.388,1.029c2.537,0.548,4.388,1.783,4.388,4.182c0,2.606-2.4,4.594-6.445,4.594
					c-3.908,0-6.308-2.263-6.376-5.005h-5.554c0.274,6.582,6.171,10.216,11.93,10.216c6.651,0,12.41-3.771,12.41-9.736
					C218.132,80.29,216.418,76.313,209.767,74.667z"/>
				<path class="st0" d="M58.74,92.837h5.759L64.5,76.795c0-10.831-8.099-16.798-16.726-16.798c-9.119,0-16.726,6.65-16.726,16.798
					c0,10.148,7.144,16.864,16.263,16.864c4.435,0,9.503-2.03,11.298-5.831L58.74,92.837z M58.61,76.795
					c0,6.582-4.937,11.242-10.834,11.242c-5.828,0-10.694-4.66-10.694-11.242c0-6.651,4.864-11.174,10.692-11.174
					C53.671,65.621,58.61,70.145,58.61,76.795z"/>
				<path class="st0" d="M129.752,108l0.002-20.03c1.503,2.667,5.385,5.688,11.409,5.688c9.712,0,15.958-7.819,15.958-16.862
					c0-9.287-6.226-16.801-16.788-16.801c-9.27,0-16.533,6.755-16.533,16.801L123.802,108H129.752z M140.626,65.679
					c5.812,0,10.462,4.747,10.462,11.117c0,6.44-4.649,11.239-10.462,11.239c-5.265,0-10.872-4.321-10.872-11.239
					C129.754,69.946,134.882,65.679,140.626,65.679z"/>
				<path class="st0" d="M0,76.792c0-10.146,8.022-16.795,17.208-16.795c5.005,0,9.393,1.987,12.203,5.072l-3.768,3.908
					c-1.99-2.057-4.868-3.358-8.229-3.358c-6.308,0-11.38,4.592-11.38,11.174s5.072,11.246,11.38,11.246
					c3.361,0,6.239-1.304,8.229-3.361l3.768,3.908c-2.811,3.154-7.199,5.075-12.203,5.075C8.022,93.66,0,86.941,0,76.792z"/>
				<path class="st0" d="M173.745,93.66c3.495,0,8.705-1.782,10.623-5.691l0.134,4.868l5.837,0.004l0.003-31.956l-5.966,0.002
					l-0.008,17.277c0,6.925-5.346,9.6-9.801,9.6c-4.455,0-7.745-3.429-7.745-8.776l0.003-18.098l-5.964,0.002l-0.002,18.439
					C160.791,88.312,165.794,93.66,173.745,93.66z"/>
			</g>
		</g>
	</g>
	<rect x="243.215" class="st0" width="1.5" height="92.837"/>
	<g>
		<g>
			<path class="st0" d="M282.57,61.227v2.443h-11.605V44.235h11.467v2.442h-8.885v5.97h8.19v2.415h-8.19v6.164H282.57z"/>
			<path class="st0" d="M297.728,55.146v8.524h-2.415v-8.385c0-2.276-1.306-3.554-3.443-3.554c-2.221,0-4.025,1.306-4.025,4.581
				v7.358h-2.416V49.787h2.416v2c1.027-1.638,2.554-2.361,4.498-2.361C295.591,49.426,297.728,51.592,297.728,55.146z"/>
			<path class="st0" d="M314.996,49.787v13.3c0,4.331-3.47,6.497-7.08,6.497c-3.11,0-5.441-1.194-6.58-3.387l2.11-1.194
				c0.639,1.305,1.805,2.333,4.526,2.333c2.888,0,4.637-1.638,4.637-4.248v-1.971c-1.111,1.694-2.888,2.776-5.22,2.776
				c-3.943,0-7.08-3.193-7.08-7.246c0-4.026,3.137-7.219,7.08-7.219c2.333,0,4.11,1.055,5.22,2.749v-2.388H314.996z M312.609,56.646
				c0-2.777-2.138-4.915-4.943-4.915c-2.804,0-4.942,2.138-4.942,4.915c0,2.804,2.138,4.942,4.942,4.942
				C310.472,61.588,312.609,59.45,312.609,56.646z"/>
			<path class="st0" d="M332.571,49.787V63.67h-2.415v-2.388c-1.111,1.694-2.888,2.749-5.247,2.749
				c-3.859,0-7.024-3.193-7.024-7.302c0-4.11,3.165-7.303,7.024-7.303c2.36,0,4.137,1.055,5.247,2.749v-2.388H332.571z
				 M330.156,56.729c0-2.832-2.138-4.97-4.942-4.97c-2.777,0-4.915,2.138-4.915,4.97c0,2.831,2.138,4.97,4.915,4.97
				C328.018,61.699,330.156,59.56,330.156,56.729z"/>
			<path class="st0" d="M350.145,49.787v13.3c0,4.331-3.47,6.497-7.08,6.497c-3.11,0-5.442-1.194-6.58-3.387l2.11-1.194
				c0.639,1.305,1.805,2.333,4.526,2.333c2.888,0,4.637-1.638,4.637-4.248v-1.971c-1.111,1.694-2.888,2.776-5.22,2.776
				c-3.943,0-7.08-3.193-7.08-7.246c0-4.026,3.137-7.219,7.08-7.219c2.333,0,4.11,1.055,5.22,2.749v-2.388H350.145z M347.757,56.646
				c0-2.777-2.139-4.915-4.943-4.915c-2.804,0-4.942,2.138-4.942,4.915c0,2.804,2.138,4.942,4.942,4.942
				C345.619,61.588,347.757,59.45,347.757,56.646z"/>
			<path class="st0" d="M360.527,61.754c1.917,0,3.305-0.888,3.998-2.027l2.055,1.166c-1.222,1.888-3.332,3.138-6.109,3.138
				c-4.47,0-7.44-3.138-7.44-7.302c0-4.11,2.943-7.303,7.275-7.303c4.192,0,6.913,3.443,6.913,7.33c0,0.362-0.028,0.723-0.083,1.083
				h-11.634C355.974,60.338,357.945,61.754,360.527,61.754z M355.502,55.729h9.274c-0.416-2.749-2.388-4.025-4.47-4.025
				C357.696,51.704,355.891,53.314,355.502,55.729z"/>
			<path class="st0" d="M390.206,55.036v8.634h-2.415v-8.552c0-2.193-1.222-3.387-3.054-3.387c-1.944,0-3.415,1.222-3.415,4.22
				v7.719h-2.415v-8.552c0-2.193-1.139-3.387-2.943-3.387c-1.86,0-3.554,1.222-3.554,4.22v7.719h-2.416V49.787h2.416v1.86
				c0.999-1.555,2.443-2.221,4.137-2.221c1.888,0,3.276,0.861,4.082,2.361c0.972-1.583,2.554-2.361,4.359-2.361
				C388.069,49.426,390.206,51.564,390.206,55.036z"/>
			<path class="st0" d="M400.283,61.754c1.917,0,3.305-0.888,3.998-2.027l2.055,1.166c-1.222,1.888-3.332,3.138-6.109,3.138
				c-4.47,0-7.44-3.138-7.44-7.302c0-4.11,2.943-7.303,7.275-7.303c4.192,0,6.913,3.443,6.913,7.33c0,0.362-0.028,0.723-0.083,1.083
				h-11.634C395.73,60.338,397.701,61.754,400.283,61.754z M395.258,55.729h9.274c-0.416-2.749-2.388-4.025-4.47-4.025
				C397.452,51.704,395.647,53.314,395.258,55.729z"/>
			<path class="st0" d="M422.05,55.146v8.524h-2.415v-8.385c0-2.276-1.306-3.554-3.443-3.554c-2.221,0-4.025,1.306-4.025,4.581
				v7.358h-2.416V49.787h2.416v2c1.027-1.638,2.554-2.361,4.498-2.361C419.912,49.426,422.05,51.592,422.05,55.146z"/>
			<path class="st0" d="M429.267,52.12v7.524c0,2.111,1.222,1.972,3.693,1.86v2.166c-4.164,0.556-6.108-0.556-6.108-4.026V52.12
				h-2.749v-2.333h2.749v-3.165l2.415-0.722v3.887h3.693v2.333H429.267z"/>
		</g>
		<g>
			<path class="st0" d="M282.57,90.394v2.443h-11.606V73.402h11.467v2.442h-8.885v5.97h8.19v2.415h-8.19v6.164H282.57z"/>
			<path class="st0" d="M297.757,78.954l-5.553,13.883h-2.832l-5.553-13.883h2.61l4.359,11.301l4.359-11.301H297.757z"/>
			<path class="st0" d="M298.478,85.896c0-4.11,3.248-7.303,7.302-7.303c4.054,0,7.33,3.193,7.33,7.303
				c0,4.109-3.277,7.302-7.33,7.302C301.727,93.198,298.478,90.005,298.478,85.896z M310.695,85.896
				c0-2.804-2.138-4.942-4.915-4.942c-2.749,0-4.887,2.138-4.887,4.942c0,2.804,2.138,4.942,4.887,4.942
				C308.557,90.838,310.695,88.7,310.695,85.896z"/>
			<path class="st0" d="M315.969,72.569h2.416v20.268h-2.416V72.569z"/>
			<path class="st0" d="M334.405,78.954l-5.553,13.883h-2.832l-5.553-13.883h2.61l4.359,11.301l4.359-11.301H334.405z"/>
			<path class="st0" d="M342.623,90.922c1.916,0,3.304-0.888,3.998-2.027l2.054,1.166c-1.222,1.888-3.332,3.138-6.109,3.138
				c-4.47,0-7.441-3.138-7.441-7.302c0-4.11,2.943-7.303,7.274-7.303c4.193,0,6.914,3.443,6.914,7.33
				c0,0.362-0.027,0.723-0.083,1.083h-11.634C338.069,89.505,340.04,90.922,342.623,90.922z M337.596,84.896h9.274
				c-0.416-2.749-2.388-4.025-4.471-4.025C339.79,80.871,337.985,82.481,337.596,84.896z"/>
			<path class="st0" d="M365.972,73.402v19.435h-2.415v-2.388c-1.111,1.694-2.888,2.749-5.248,2.749
				c-3.86,0-7.025-3.193-7.025-7.302c0-4.11,3.165-7.303,7.025-7.303c2.36,0,4.137,1.055,5.248,2.749v-7.94H365.972z
				 M363.557,85.896c0-2.832-2.138-4.97-4.942-4.97c-2.777,0-4.915,2.138-4.915,4.97c0,2.831,2.138,4.97,4.915,4.97
				C361.419,90.866,363.557,88.728,363.557,85.896z"/>
		</g>
	</g>
	<g>
		<g>
			<path class="st0" d="M71.677,14.398c-9.118,0-16.728,6.65-16.728,16.797c0,10.146,7.61,16.865,16.728,16.865
				c9.118,0,16.796-6.719,16.796-16.865C88.473,21.048,80.795,14.398,71.677,14.398z M71.677,42.439
				c-5.827,0-10.695-4.594-10.695-11.244c0-6.582,4.868-11.175,10.695-11.175c5.896,0,10.832,4.594,10.832,11.175
				C82.509,37.845,77.573,42.439,71.677,42.439z"/>
			<path class="st0" d="M145.223,14.398c-9.117,0-16.453,6.582-16.453,16.728c0,10.147,7.335,16.934,16.453,16.934
				c6.17,0,11.929-3.016,14.671-8.57l-5.142-2.057c-1.851,3.222-5.416,5.005-9.323,5.005c-5.485,0-9.598-2.948-10.489-8.639h26.051
				c0.068-0.891,0.137-1.783,0.137-2.674C161.128,20.98,154.341,14.398,145.223,14.398z M135.009,28.658
				c0.96-5.759,4.799-8.639,10.215-8.639c5.279,0,9.187,3.154,9.94,8.639H135.009z"/>
			<path class="st0" d="M204.08,14.397c-3.495,0-8.705,1.782-10.623,5.691l-0.13-4.8h-5.834v31.952h5.963V29.892
				c0-6.925,5.346-9.6,9.801-9.6c4.455,0,7.745,3.429,7.745,8.776v18.17h5.963V28.727C217.034,19.744,212.031,14.397,204.08,14.397z
				"/>
			<path class="st0" d="M170.876,20.093l-0.13-4.803h-5.835v31.952h5.965V29.897c0-6.925,5.347-9.599,9.803-9.599
				c0.853,0,1.662,0.128,2.415,0.368l0.742-6.084c-0.749-0.11-1.522-0.18-2.334-0.18C178.006,14.402,172.795,16.184,170.876,20.093z
				"/>
			<path class="st0" d="M119.214,0l-0.001,20.088c-1.507-2.67-5.399-5.688-11.441-5.688c-9.74,0-16.006,7.744-16.006,16.798
				c0,9.297,6.244,16.862,16.837,16.862c9.297,0,16.578-6.825,16.578-16.834V0H119.214z M108.312,42.437
				c-5.829,0-10.49-4.862-10.49-11.239c0-6.447,4.662-11.182,10.49-11.182c5.28,0,10.901,4.255,10.901,11.182
				C119.213,38.055,114.072,42.437,108.312,42.437z"/>
			<path class="st0" d="M38.952,14.398c-3.222,0-8.227,1.097-11.175,6.856c-1.851-4.388-5.896-6.856-10.558-6.856
				c-4.525,0-8.706,2.262-10.283,5.759l-0.13-4.868H0.972v31.949h5.965V29.892c0-6.788,4.525-9.736,9.049-9.736
				c4.25,0,7.198,3.496,7.198,8.913v18.168h5.965V31.195c0-7.131,2.948-11.107,8.638-11.038c4.662,0,7.61,3.565,7.61,8.913v18.168
				h5.964V28.727C51.36,19.745,46.973,14.398,38.952,14.398z"/>
		</g>
		<g>
			<path class="st0" d="M106.841,59.994c-3.223,0-8.228,1.097-11.176,6.857c-1.851-4.388-5.897-6.857-10.559-6.857
				c-4.525,0-8.707,2.262-10.284,5.759l-0.13-4.868h-5.836v31.952h5.966V75.49c0-6.788,4.525-9.737,9.051-9.737
				c4.251,0,7.199,3.497,7.199,8.914v18.17h5.966V76.793c0-7.131,2.948-11.108,8.639-11.039c4.662,0,7.611,3.566,7.611,8.914v18.17
				h5.965V74.325C119.251,65.342,114.863,59.994,106.841,59.994z"/>
			<path class="st0" d="M209.767,74.667l-4.731-1.166c-2.057-0.48-4.114-1.646-4.114-3.84c0-2.468,2.057-4.457,5.142-4.457
				c2.537,0,5.074,1.646,5.143,4.114h5.759c0-6.445-5.622-9.325-11.039-9.325c-6.445,0-10.97,4.182-10.97,9.462
				c0,5.143,3.086,7.748,8.433,9.188l4.388,1.029c2.537,0.548,4.388,1.783,4.388,4.182c0,2.606-2.4,4.594-6.445,4.594
				c-3.908,0-6.308-2.263-6.376-5.005h-5.554c0.274,6.582,6.171,10.216,11.93,10.216c6.651,0,12.41-3.771,12.41-9.736
				C218.132,80.29,216.418,76.313,209.767,74.667z"/>
			<path class="st0" d="M58.74,92.837h5.759L64.5,76.795c0-10.831-8.099-16.798-16.726-16.798c-9.119,0-16.726,6.65-16.726,16.798
				c0,10.148,7.144,16.864,16.263,16.864c4.435,0,9.503-2.03,11.298-5.831L58.74,92.837z M58.61,76.795
				c0,6.582-4.937,11.242-10.834,11.242c-5.828,0-10.694-4.66-10.694-11.242c0-6.651,4.864-11.174,10.692-11.174
				C53.671,65.621,58.61,70.145,58.61,76.795z"/>
			<path class="st0" d="M129.752,108l0.002-20.03c1.503,2.667,5.385,5.688,11.409,5.688c9.712,0,15.958-7.819,15.958-16.862
				c0-9.287-6.226-16.801-16.788-16.801c-9.27,0-16.533,6.755-16.533,16.801L123.802,108H129.752z M140.626,65.679
				c5.812,0,10.462,4.747,10.462,11.117c0,6.44-4.649,11.239-10.462,11.239c-5.265,0-10.872-4.321-10.872-11.239
				C129.754,69.946,134.882,65.679,140.626,65.679z"/>
			<path class="st0" d="M0,76.792c0-10.146,8.022-16.795,17.208-16.795c5.005,0,9.393,1.987,12.203,5.072l-3.768,3.908
				c-1.99-2.057-4.868-3.358-8.229-3.358c-6.308,0-11.38,4.592-11.38,11.174s5.072,11.246,11.38,11.246
				c3.361,0,6.239-1.304,8.229-3.361l3.768,3.908c-2.811,3.154-7.199,5.075-12.203,5.075C8.022,93.66,0,86.941,0,76.792z"/>
			<path class="st0" d="M173.745,93.66c3.495,0,8.705-1.782,10.623-5.691l0.134,4.868l5.837,0.004l0.003-31.956l-5.966,0.002
				l-0.008,17.277c0,6.925-5.346,9.6-9.801,9.6c-4.455,0-7.745-3.429-7.745-8.776l0.003-18.098l-5.964,0.002l-0.002,18.439
				C160.791,88.312,165.794,93.66,173.745,93.66z"/>
		</g>
	</g>
</g>
</svg>
